<svg id="Layer_1" enable-background="new 0 0 133 133" viewBox="0 0 133 133" xmlns="http://www.w3.org/2000/svg"><g><path d="m30.339 2.5h72.322c15.375 0 27.839 12.464 27.839 27.839v72.322c0 15.375-12.464 27.839-27.839 27.839h-72.322c-15.375 0-27.839-12.464-27.839-27.839v-72.322c0-15.375 12.464-27.839 27.839-27.839z" fill="#da8a36"/><g fill="#fff"><path d="m31.15 11.13h70.7c10.82 0 19.591 8.771 19.591 19.591v71.559c0 10.82-8.771 19.591-19.591 19.591h-70.7c-10.82 0-19.591-8.771-19.591-19.591v-71.559c0-10.82 8.771-19.591 19.591-19.591z" opacity=".3"/><path d="m31.15 26.13h70.7c10.82 0 19.591 8.771 19.591 19.591v41.559c0 10.82-8.771 19.591-19.591 19.591h-70.7c-10.82 0-19.591-8.771-19.591-19.591v-41.559c0-10.82 8.771-19.591 19.591-19.591z" opacity=".6"/><path d="m31.15 41.13h70.7c10.82 0 19.591 8.771 19.591 19.591v41.559c0 10.82-8.771 19.591-19.591 19.591h-70.7c-10.82 0-19.591-8.771-19.591-19.591v-41.559c0-10.82 8.771-19.591 19.591-19.591z"/></g><path d="m2.5 66.5v36.161c0 15.375 12.464 27.839 27.839 27.839h72.322c15.375 0 27.839-12.464 27.839-27.839v-36.161h-52.146c-1.136 0-2.175.642-2.683 1.658-3.779 7.557-14.563 7.557-18.342 0-.508-1.016-1.547-1.658-2.683-1.658z" fill="#fdba21"/></g></svg>